<svg xmlns="http://www.w3.org/2000/svg" width="640" height="80" role="img" aria-label="Detected shot intervals"><rect x="0.00" y="8" width="25.67" height="32" fill="#4C6EF5" opacity="0.85"/><text x="2.00" y="60" font-size="10">0 00:00.000</text><rect x="26.67" y="8" width="25.67" height="32" fill="#15AABF" opacity="0.85"/><text x="28.67" y="60" font-size="10">1 00:00.080</text><rect x="53.33" y="8" width="25.67" height="32" fill="#82C91E" opacity="0.85"/><text x="55.33" y="60" font-size="10">2 00:00.160</text><rect x="80.00" y="8" width="25.67" height="32" fill="#FAB005" opacity="0.85"/><text x="82.00" y="60" font-size="10">3 00:00.240</text><rect x="106.67" y="8" width="25.67" height="32" fill="#FD7E14" opacity="0.85"/><text x="108.67" y="60" font-size="10">4 00:00.320</text><rect x="133.33" y="8" width="25.67" height="32" fill="#4C6EF5" opacity="0.85"/><text x="135.33" y="60" font-size="10">5 00:00.400</text><rect x="160.00" y="8" width="25.67" height="32" fill="#15AABF" opacity="0.85"/><text x="162.00" y="60" font-size="10">6 00:00.480</text><rect x="186.67" y="8" width="25.67" height="32" fill="#82C91E" opacity="0.85"/><text x="188.67" y="60" font-size="10">7 00:00.560</text><rect x="213.33" y="8" width="25.67" height="32" fill="#FAB005" opacity="0.85"/><text x="215.33" y="60" font-size="10">8 00:00.640</text><rect x="240.00" y="8" width="25.67" height="32" fill="#FD7E14" opacity="0.85"/><text x="242.00" y="60" font-size="10">9 00:00.720</text><rect x="266.67" y="8" width="25.67" height="32" fill="#4C6EF5" opacity="0.85"/><text x="268.67" y="60" font-size="10">10 00:00.800</text><rect x="293.33" y="8" width="25.67" height="32" fill="#15AABF" opacity="0.85"/><text x="295.33" y="60" font-size="10">11 00:00.880</text><rect x="320.00" y="8" width="25.67" height="32" fill="#82C91E" opacity="0.85"/><text x="322.00" y="60" font-size="10">12 00:00.960</text><rect x="346.67" y="8" width="25.67" height="32" fill="#FAB005" opacity="0.85"/><text x="348.67" y="60" font-size="10">13 00:01.040</text><rect x="373.33" y="8" width="25.67" height="32" fill="#FD7E14" opacity="0.85"/><text x="375.33" y="60" font-size="10">14 00:01.120</text><rect x="400.00" y="8" width="25.67" height="32" fill="#4C6EF5" opacity="0.85"/><text x="402.00" y="60" font-size="10">15 00:01.200</text><rect x="426.67" y="8" width="25.67" height="32" fill="#15AABF" opacity="0.85"/><text x="428.67" y="60" font-size="10">16 00:01.280</text><rect x="453.33" y="8" width="25.67" height="32" fill="#82C91E" opacity="0.85"/><text x="455.33" y="60" font-size="10">17 00:01.360</text><rect x="480.00" y="8" width="25.67" height="32" fill="#FAB005" opacity="0.85"/><text x="482.00" y="60" font-size="10">18 00:01.440</text><rect x="506.67" y="8" width="25.67" height="32" fill="#FD7E14" opacity="0.85"/><text x="508.67" y="60" font-size="10">19 00:01.520</text><rect x="533.33" y="8" width="25.67" height="32" fill="#4C6EF5" opacity="0.85"/><text x="535.33" y="60" font-size="10">20 00:01.600</text><rect x="560.00" y="8" width="25.67" height="32" fill="#15AABF" opacity="0.85"/><text x="562.00" y="60" font-size="10">21 00:01.680</text><rect x="586.67" y="8" width="25.67" height="32" fill="#82C91E" opacity="0.85"/><text x="588.67" y="60" font-size="10">22 00:01.760</text><rect x="613.33" y="8" width="25.67" height="32" fill="#FAB005" opacity="0.85"/><text x="615.33" y="60" font-size="10">23 00:01.840</text></svg>